<svg width="33" height="25" xmlns="http://www.w3.org/2000/svg">

 <g>
  <title>background</title>
  <rect fill="none" id="canvas_background" height="402" width="582" y="-1" x="-1"/>
 </g>
 <g>
  <title>Layer 1</title>
  <path transform="rotate(-180 16.67949867248535,12.500000953674315) " id="svg_2" fill="#9fdeb7" d="m18.006,6.533c0,-1.973 0.662,-3.554 1.988,-4.743c1.326,-1.19 2.977,-1.785 4.947,-1.785c2.517,0 4.488,0.799 5.916,2.397c1.428,1.597 2.143,3.723 2.143,6.375c0,2.719 -0.424,5.032 -1.275,6.936c-0.85,1.903 -1.869,3.483 -3.061,4.743c-1.188,1.258 -2.43,2.244 -3.723,2.958c-1.291,0.714 -2.413,1.239 -3.365,1.581l-3.265,-5.508c1.36,-0.545 2.517,-1.412 3.468,-2.602c0.953,-1.19 1.496,-2.465 1.633,-3.824c-1.359,0 -2.602,-0.597 -3.724,-1.786c-1.122,-1.19 -1.682,-2.771 -1.682,-4.742zm-17.647,0c0,-1.973 0.663,-3.554 1.989,-4.743c1.326,-1.191 2.976,-1.785 4.947,-1.785c2.518,0 4.488,0.799 5.916,2.397c1.429,1.597 2.143,3.723 2.143,6.375c0,2.719 -0.424,5.032 -1.275,6.936c-0.85,1.903 -1.869,3.483 -3.06,4.743c-1.188,1.258 -2.431,2.244 -3.724,2.958c-1.291,0.714 -2.412,1.239 -3.365,1.581l-3.264,-5.508c1.36,-0.545 2.516,-1.412 3.467,-2.602c0.953,-1.19 1.497,-2.465 1.633,-3.824c-1.359,0 -2.602,-0.597 -3.723,-1.786c-1.123,-1.19 -1.684,-2.771 -1.684,-4.742z"/>
 </g>
</svg>