<svg width="30" height="30" xmlns="http://www.w3.org/2000/svg">

 <g>
  <title>background</title>
  <rect fill="none" id="canvas_background" height="402" width="582" y="-1" x="-1"/>
 </g>
 <g>
  <title>Layer 1</title>
  <polygon fill="#778492" id="svg_1" points="15.472000122070312,3.186137340962887 15,4.066137455403805 15,11.066137455403805 29,11.066137455403805 29.461999893188477,10.180137775838375 "/>
  <polygon fill="#778492" id="svg_2" points="14.527999877929688,3.186137340962887 15,4.066137455403805 15,11.066137455403805 1,11.066137455403805 0.5379999876022339,10.180137775838375 "/>
  <polygon fill="#778492" id="svg_3" points="14.527999877929688,18.946136616170406 15,18.066137455403805 15,11.066137455403805 1,11.066137455403805 0.5379999876022339,11.952137134969234 "/>
  <polygon fill="#778492" id="svg_4" points="15.472000122070312,18.946136616170406 15,18.066137455403805 15,11.066137455403805 29,11.066137455403805 29.461999893188477,11.952137134969234 "/>
  <circle fill="#778492" id="svg_5" r="1" cy="11.066137" cx="29"/>
  <circle fill="#778492" id="svg_6" r="1" cy="11.066137" cx="1"/>
  <circle fill="#778492" id="svg_7" r="1" cy="18.066137" cx="15"/>
  <circle fill="#778492" id="svg_8" r="1" cy="4.066137" cx="15"/>
  <path fill="#778492" id="svg_10" d="m16.366,20.735137c-0.084,0.042 -0.169,0.077 -0.255,0.106c-0.362,0.149 -0.734,0.225 -1.111,0.225c-0.376,0 -0.747,-0.075 -1.107,-0.224c-0.087,-0.029 -0.174,-0.065 -0.259,-0.108l-7.634,-3.816l0,4.148c0,2.761 4.029,5 9,5s9,-2.239 9,-5l0,-4.148l-7.634,3.817z"/>
  <path fill="#778492" id="svg_11" d="m27,15.419137l0,10.647c0,0.553 0.448,1 1,1s1,-0.447 1,-1l0,-11.647l-2,1z"/>
  <path fill="#778492" id="svg_12" d="m30,26.066137c0,1.105 -2,4 -2,4s-2,-2.895 -2,-4s0.895,-2 2,-2s2,0.895 2,2z"/>
 </g>
</svg>