<svg width="32" height="32" xmlns="http://www.w3.org/2000/svg">

 <g>
  <title>background</title>
  <rect fill="none" id="canvas_background" height="402" width="582" y="-1" x="-1"/>
 </g>
 <g>
  <title>Layer 1</title>
  <path id="svg_3" fill="#ccd1d6" d="m16,0c-8.837,0 -16,7.163 -16,16c0,8.836 7.163,16 16,16s16,-7.164 16,-16c0,-8.837 -7.163,-16 -16,-16z"/>
  <path id="svg_4" fill="#FFFFFF" d="m16,5.534c-3.73,0 -6.754,3.024 -6.754,6.754c0,0.625 0.085,1.231 0.244,1.806c0.064,0.23 0.139,0.456 0.226,0.675l0.205,0.465l6.079,11.232l6.087,-11.249l0.185,-0.419c0.092,-0.229 0.171,-0.464 0.238,-0.705c0.159,-0.575 0.244,-1.18 0.244,-1.806c0,-3.729 -3.024,-6.753 -6.754,-6.753zm0,9.68c-1.65,0 -2.988,-1.338 -2.988,-2.988c0,-1.65 1.338,-2.988 2.988,-2.988c1.65,0 2.988,1.338 2.988,2.988c0,1.651 -1.338,2.988 -2.988,2.988z"/>
 </g>
</svg>